<svg width="23" height="26" viewBox="0 0 23 26" fill="none" xmlns="http://www.w3.org/2000/svg">
<path d="M4.13232 19.6055H21.7104C22.3589 19.6055 22.8823 19.082 22.8823 18.4336V1.24609C22.8823 0.597656 22.3589 0.0742188 21.7104 0.0742188H4.13232C1.97607 0.0742188 0.226074 1.82422 0.226074 3.98047V21.168C0.226074 23.3242 1.97607 25.0742 4.13232 25.0742H21.7104C22.3589 25.0742 22.8823 24.5508 22.8823 23.9023C22.8823 23.2539 22.3589 22.7305 21.7104 22.7305H4.13232C3.27295 22.7305 2.56982 22.0273 2.56982 21.168C2.56982 20.3086 3.27295 19.6055 4.13232 19.6055ZM12.3823 15.7461C12.1636 15.9648 11.8589 16.0898 11.5542 16.0898C11.2495 16.0898 10.9448 15.9648 10.7261 15.7461C10.5073 15.5273 10.3823 15.2305 10.3823 14.918C10.3823 14.6133 10.5073 14.3086 10.7261 14.0898C11.1636 13.6523 11.9448 13.6523 12.3823 14.0898C12.6011 14.3086 12.7261 14.6133 12.7261 14.918C12.7261 15.2305 12.6011 15.5273 12.3823 15.7461ZM9.29639 4.41016C10.0933 3.74609 11.1479 3.46484 12.1792 3.64453C13.6011 3.89453 14.7651 5.05859 15.0151 6.48047C15.2729 7.97266 14.5698 9.45703 13.2495 10.1836C12.9292 10.3633 12.7261 10.7617 12.7261 11.2148V11.4023C12.7261 12.0508 12.2026 12.5742 11.5542 12.5742C10.9058 12.5742 10.3823 12.0508 10.3823 11.4023V11.2148C10.3823 9.90234 11.0464 8.72266 12.1167 8.13672C12.4604 7.94922 12.812 7.50391 12.7026 6.88672C12.6245 6.42578 12.2339 6.03516 11.7808 5.95703C11.4136 5.88672 11.0698 5.98047 10.8042 6.20703C10.5386 6.43359 10.3823 6.76172 10.3823 7.10547C10.3823 7.75391 9.85889 8.27734 9.21045 8.27734C8.56201 8.27734 8.03857 7.75391 8.03857 7.10547C8.03857 6.06641 8.49951 5.08203 9.29639 4.41016Z" fill="white"/>
</svg>
