<svg width="199" height="80" viewBox="0 0 199 80" fill="none" xmlns="http://www.w3.org/2000/svg">
<g style="mix-blend-mode:plus-lighter" opacity="0.2">
<path d="M188.959 71.4394C189.145 69.029 191.023 67.1443 193.432 66.9638L196.191 66.7514L196.191 66.4488L193.432 66.2364C191.023 66.0506 189.14 64.1711 188.959 61.7608L188.747 59L188.445 59L188.232 61.7608C188.047 64.1711 186.168 66.0559 183.759 66.2364L181 66.4488L181 66.7514L183.759 66.9637C186.168 67.1496 188.052 69.029 188.232 71.4394L188.445 74.2001L188.747 74.2001L188.959 71.4394Z" fill="white"/>
<path d="M87.9258 19.7595C88.0516 18.1275 89.3245 16.8515 90.9569 16.7292L92.8267 16.5855L92.8267 16.3806L90.9569 16.2368C89.3245 16.111 88.048 14.8385 87.9258 13.2066L87.7819 11.3374L87.577 11.3374L87.4332 13.2066C87.3073 14.8385 86.0344 16.1146 84.402 16.2368L82.5323 16.3806L82.5323 16.5855L84.402 16.7292C86.0344 16.8551 87.3109 18.1275 87.4332 19.7595L87.577 21.6286L87.7819 21.6286L87.9258 19.7595Z" fill="white"/>
<path d="M50.2977 26.723C50.4144 25.1886 51.6136 23.9888 53.147 23.872L54.9033 23.7392L54.9033 23.5481L53.147 23.4154C51.6136 23.2986 50.4144 22.0987 50.2977 20.5643L50.165 18.807L49.974 18.807L49.8414 20.5643C49.7246 22.0987 48.5255 23.2986 46.992 23.4154L45.2357 23.5481L45.2357 23.7392L46.992 23.872C48.5255 23.9888 49.7246 25.1886 49.8414 26.723L49.974 28.4803L50.165 28.4803L50.2977 26.723Z" fill="white"/>
<path d="M36.4012 69.3483C36.5179 67.814 37.7171 66.6141 39.2505 66.4973L41.0068 66.3646L41.0068 66.1735L39.2505 66.0407C37.7171 65.9239 36.5179 64.7241 36.4012 63.1897L36.2685 61.4324L36.0775 61.4324L35.9449 63.1897C35.8281 64.7241 34.629 65.9239 33.0955 66.0407L31.3392 66.1735L31.3392 66.3646L33.0955 66.4973C34.629 66.6141 35.8281 67.814 35.9449 69.3483L36.0775 71.1057L36.2685 71.1057L36.4012 69.3483Z" fill="white"/>
<path d="M147.818 23.7623C147.935 22.228 149.134 21.0281 150.668 20.9113L152.424 20.7786L152.424 20.5874L150.668 20.4547C149.134 20.3379 147.935 19.138 147.818 17.6037L147.686 15.8463L147.495 15.8463L147.362 17.6037C147.245 19.138 146.046 20.3379 144.513 20.4547L142.756 20.5874L142.756 20.7786L144.513 20.9113C146.046 21.0281 147.245 22.228 147.362 23.7623L147.495 25.5197L147.686 25.5197L147.818 23.7623Z" fill="white"/>
<path d="M184.955 42.7999C185.024 41.8867 185.735 41.1752 186.648 41.1062L187.714 41.0266L187.714 40.8355L186.648 40.7558C185.735 40.6868 185.024 39.9754 184.955 39.0622L184.876 37.9951L184.685 37.9951L184.605 39.0622C184.536 39.9754 183.825 40.6868 182.912 40.7558L181.846 40.8355L181.846 41.0266L182.912 41.1062C183.825 41.1752 184.536 41.8867 184.605 42.7999L184.685 43.867L184.876 43.867L184.955 42.7999Z" fill="white"/>
<path d="M167.765 27.8661C167.803 27.4095 168.153 27.0538 168.609 27.0219L169.14 26.9794L169.14 26.8839L168.609 26.8414C168.153 26.8043 167.797 26.4538 167.765 25.9973L167.723 25.4663L167.627 25.4663L167.585 25.9973C167.548 26.4538 167.198 26.8096 166.741 26.8414L166.211 26.8839L166.211 26.9794L166.741 27.0219C167.198 27.0591 167.553 27.4095 167.585 27.8661L167.627 28.397L167.723 28.397L167.765 27.8661Z" fill="white"/>
<path d="M114.011 34.6197C114.087 33.6261 114.864 32.8491 115.858 32.7735L116.997 32.6875L116.997 32.5638L115.858 32.4778C114.864 32.4022 114.087 31.6252 114.011 30.6315L113.925 29.4935L113.802 29.4935L113.716 30.6315C113.64 31.6252 112.863 32.4022 111.869 32.4778L110.73 32.5638L110.73 32.6875L111.869 32.7735C112.863 32.8491 113.64 33.6261 113.716 34.6197L113.802 35.7578L113.925 35.7578L114.011 34.6197Z" fill="white"/>
<path d="M87.7579 52.2748C87.811 51.558 88.3681 51.0006 89.0844 50.9475L89.9175 50.8838L89.9175 50.7351L89.0844 50.6714C88.3681 50.6183 87.811 50.0609 87.7579 49.3441L87.6942 48.5106L87.5457 48.5106L87.482 49.3441C87.429 50.0609 86.8718 50.6183 86.1555 50.6714L85.3224 50.7351L85.3224 50.8838L86.1555 50.9475C86.8718 51.0006 87.4289 51.558 87.482 52.2748L87.5457 53.1083L87.6942 53.1083L87.7579 52.2748Z" fill="white"/>
<path d="M126.14 59.6348C126.177 59.1782 126.533 58.8225 126.984 58.7907L127.514 58.7482L127.514 58.6526L126.984 58.6101C126.527 58.573 126.172 58.2226 126.14 57.766L126.097 57.235L126.002 57.235L125.959 57.766C125.922 58.2226 125.572 58.5783 125.116 58.6101L124.585 58.6526L124.585 58.7482L125.116 58.7907C125.572 58.8278 125.928 59.1782 125.959 59.6348L126.002 60.1657L126.097 60.1657L126.14 59.6348Z" fill="white"/>
<path d="M148.405 53.5512C148.458 52.8344 149.016 52.277 149.732 52.2239L150.565 52.1602L150.565 52.0115L149.732 51.9478C149.016 51.8947 148.458 51.3372 148.405 50.6205L148.342 49.787L148.193 49.787L148.129 50.6205C148.076 51.3372 147.519 51.8947 146.803 51.9478L145.97 52.0115L145.97 52.1602L146.803 52.2239C147.519 52.277 148.076 52.8344 148.129 53.5512L148.193 54.3847L148.342 54.3847L148.405 53.5512Z" fill="white"/>
<path d="M2.65001 40.0007C2.70307 39.2839 3.2602 38.7265 3.97652 38.6734L4.80957 38.6097L4.80957 38.461L3.97652 38.3973C3.2602 38.3442 2.70307 37.7868 2.65001 37.07L2.58634 36.2365L2.43777 36.2365L2.3741 37.07C2.32104 37.7868 1.76391 38.3442 1.04759 38.3973L0.214538 38.461L0.214538 38.6097L1.04759 38.6734C1.76391 38.7265 2.32104 39.2839 2.3741 40.0007L2.43777 40.8342L2.58634 40.8342L2.65001 40.0007Z" fill="white"/>
<path d="M108.542 68.6373C108.595 67.9206 109.152 67.3631 109.868 67.31L110.701 67.2463L110.701 67.0977L109.868 67.0339C109.152 66.9808 108.595 66.4234 108.542 65.7066L108.478 64.8731L108.329 64.8731L108.266 65.7066C108.213 66.4234 107.656 66.9808 106.939 67.0339L106.106 67.0976L106.106 67.2463L106.939 67.31C107.656 67.3631 108.213 67.9206 108.266 68.6373L108.329 69.4708L108.478 69.4708L108.542 68.6373Z" fill="white"/>
<path d="M75.2091 6.3079C75.2622 5.59116 75.8193 5.0337 76.5356 4.98061L77.3687 4.9169L77.3687 4.76824L76.5356 4.70453C75.8193 4.65144 75.2622 4.09398 75.2091 3.37724L75.1454 2.5437L74.9969 2.5437L74.9332 3.37724C74.8801 4.09398 74.323 4.65144 73.6067 4.70453L72.7736 4.76824L72.7736 4.9169L73.6067 4.98061C74.323 5.0337 74.8801 5.59116 74.9332 6.3079L74.9969 7.14144L75.1454 7.14144L75.2091 6.3079Z" fill="white"/>
<path d="M34.8683 45.6125C34.9213 44.8957 35.4785 44.3383 36.1948 44.2852L37.0278 44.2215L37.0278 44.0728L36.1948 44.0091C35.4785 43.956 34.9213 43.3985 34.8683 42.6818L34.8046 41.8483L34.656 41.8483L34.5924 42.6818C34.5393 43.3985 33.9822 43.956 33.2658 44.0091L32.4328 44.0728L32.4328 44.2215L33.2658 44.2852C33.9822 44.3383 34.5393 44.8957 34.5924 45.6125L34.656 46.446L34.8046 46.446L34.8683 45.6125Z" fill="white"/>
<path d="M122.445 3.95017C122.498 3.23343 123.056 2.67597 123.772 2.62288L124.605 2.55917L124.605 2.41051L123.772 2.3468C123.056 2.29371 122.498 1.73625 122.445 1.01951L122.382 0.185974L122.233 0.185974L122.17 1.01951C122.116 1.73625 121.559 2.29371 120.843 2.3468L120.01 2.41051L120.01 2.55917L120.843 2.62288C121.559 2.67597 122.116 3.23343 122.17 3.95017L122.233 4.78371L122.382 4.78371L122.445 3.95017Z" fill="white"/>
</g>
</svg>
