<svg width="131" height="77" viewBox="0 0 131 77" fill="none" xmlns="http://www.w3.org/2000/svg">
<g style="mix-blend-mode:plus-lighter" opacity="0.2">
<path d="M42.6533 19.5734C42.5275 17.9415 41.2546 16.6654 39.6222 16.5432L37.7524 16.3994L37.7524 16.1945L39.6222 16.0508C41.2546 15.9249 42.5311 14.6525 42.6533 13.0205L42.7972 11.1514L43.0021 11.1514L43.1459 13.0205C43.2718 14.6525 44.5447 15.9285 46.1771 16.0508L48.0469 16.1945L48.0469 16.3994L46.1771 16.5432C44.5447 16.669 43.2682 17.9415 43.1459 19.5734L43.0021 21.4426L42.7972 21.4426L42.6533 19.5734Z" fill="white"/>
<path d="M80.2814 26.537C80.1647 25.0026 78.9655 23.8027 77.4321 23.6859L75.6758 23.5532L75.6758 23.3621L77.4321 23.2294C78.9655 23.1126 80.1647 21.9127 80.2814 20.3783L80.4141 18.621L80.6051 18.621L80.7377 20.3783C80.8545 21.9127 82.0536 23.1126 83.5871 23.2294L85.3434 23.3621L85.3434 23.5532L83.5871 23.6859C82.0536 23.8027 80.8545 25.0026 80.7377 26.537L80.6051 28.2943L80.4141 28.2943L80.2814 26.537Z" fill="white"/>
<path d="M94.1779 69.1623C94.0612 67.628 92.862 66.4281 91.3286 66.3113L89.5723 66.1786L89.5723 65.9874L91.3286 65.8547C92.862 65.7379 94.0612 64.538 94.1779 63.0037L94.3106 61.2463L94.5016 61.2463L94.6342 63.0037C94.751 64.538 95.9501 65.7379 97.4836 65.8547L99.2399 65.9874L99.2399 66.1786L97.4836 66.3113C95.9501 66.4281 94.751 67.628 94.6342 69.1623L94.5016 70.9196L94.3106 70.9196L94.1779 69.1623Z" fill="white"/>
<path d="M16.5677 34.4337C16.4921 33.4401 15.7148 32.6631 14.7209 32.5874L13.5825 32.5015L13.5825 32.3777L14.7209 32.2918C15.7148 32.2161 16.4921 31.4391 16.5677 30.4455L16.6537 29.3075L16.7775 29.3075L16.8635 30.4455C16.9391 31.4391 17.7164 32.2161 18.7103 32.2918L19.8487 32.3777L19.8487 32.5015L18.7103 32.5874C17.7164 32.6631 16.9392 33.4401 16.8635 34.4337L16.7775 35.5717L16.6537 35.5717L16.5677 34.4337Z" fill="white"/>
<path d="M42.8212 52.0887C42.7681 51.372 42.211 50.8145 41.4947 50.7614L40.6616 50.6977L40.6616 50.5491L41.4947 50.4854C42.211 50.4323 42.7681 49.8748 42.8212 49.1581L42.8849 48.3246L43.0334 48.3246L43.0971 49.1581C43.1502 49.8748 43.7073 50.4323 44.4236 50.4854L45.2567 50.5491L45.2567 50.6977L44.4236 50.7614C43.7073 50.8145 43.1502 51.372 43.0971 52.0887L43.0334 52.9223L42.8849 52.9223L42.8212 52.0887Z" fill="white"/>
<path d="M4.43921 59.4488C4.40207 58.9922 4.04656 58.6365 3.59555 58.6046L3.06494 58.5621L3.06494 58.4666L3.59555 58.4241C4.05186 58.3869 4.40738 58.0365 4.43921 57.5799L4.48166 57.049L4.57717 57.049L4.61962 57.5799C4.65676 58.0365 5.00695 58.3922 5.46327 58.4241L5.99388 58.4666L5.99388 58.5621L5.46327 58.6046C5.00695 58.6418 4.65145 58.9922 4.61962 59.4488L4.57717 59.9797L4.48166 59.9797L4.43921 59.4488Z" fill="white"/>
<path d="M127.929 39.8146C127.876 39.0979 127.319 38.5404 126.603 38.4874L125.77 38.4236L125.77 38.275L126.603 38.2113C127.319 38.1582 127.876 37.6007 127.929 36.884L127.993 36.0504L128.141 36.0504L128.205 36.884C128.258 37.6007 128.815 38.1582 129.532 38.2113L130.365 38.275L130.365 38.4236L129.532 38.4874C128.815 38.5404 128.258 39.0979 128.205 39.8146L128.141 40.6482L127.993 40.6482L127.929 39.8146Z" fill="white"/>
<path d="M22.0375 68.4513C21.9844 67.7345 21.4273 67.1771 20.711 67.124L19.8779 67.0603L19.8779 66.9116L20.711 66.8479C21.4273 66.7948 21.9844 66.2373 22.0375 65.5206L22.1012 64.6871L22.2497 64.6871L22.3134 65.5206C22.3665 66.2373 22.9236 66.7948 23.6399 66.8479L24.473 66.9116L24.473 67.0603L23.6399 67.124C22.9236 67.1771 22.3665 67.7345 22.3134 68.4513L22.2497 69.2848L22.1012 69.2848L22.0375 68.4513Z" fill="white"/>
<path d="M55.37 6.12186C55.317 5.40513 54.7598 4.84766 54.0435 4.79457L53.2104 4.73086L53.2104 4.58221L54.0435 4.5185C54.7598 4.4654 55.317 3.90794 55.37 3.1912L55.4337 2.35767L55.5822 2.35767L55.6459 3.1912C55.699 3.90794 56.2561 4.4654 56.9724 4.5185L57.8055 4.58221L57.8055 4.73086L56.9724 4.79457C56.2561 4.84766 55.699 5.40513 55.6459 6.12186L55.5822 6.9554L55.4337 6.9554L55.37 6.12186Z" fill="white"/>
<path d="M95.7108 45.4264C95.6578 44.7097 95.1006 44.1522 94.3843 44.0992L93.5513 44.0354L93.5513 43.8868L94.3843 43.8231C95.1006 43.77 95.6578 43.2125 95.7108 42.4958L95.7745 41.6622L95.9231 41.6622L95.9867 42.4958C96.0398 43.2125 96.5969 43.77 97.3133 43.8231L98.1463 43.8868L98.1463 44.0354L97.3133 44.0992C96.5969 44.1522 96.0398 44.7097 95.9867 45.4264L95.9231 46.26L95.7745 46.26L95.7108 45.4264Z" fill="white"/>
<path d="M8.13368 3.76414C8.08062 3.0474 7.52348 2.48994 6.80717 2.43684L5.97412 2.37314L5.97412 2.22447L6.80717 2.16077C7.52348 2.10767 8.08062 1.55021 8.13368 0.833474L8.19735 -6.11323e-05L8.34592 -6.11388e-05L8.40959 0.833474C8.46265 1.55021 9.01979 2.10767 9.7361 2.16077L10.5692 2.22447L10.5692 2.37314L9.7361 2.43684C9.01979 2.48994 8.46265 3.0474 8.40959 3.76414L8.34592 4.59767L8.19735 4.59767L8.13368 3.76414Z" fill="white"/>
</g>
</svg>
