<svg width="24" height="25" viewBox="0 0 24 25" fill="none" xmlns="http://www.w3.org/2000/svg">
<path d="M7 22.5V12.8981C7 11.8299 7 11.2958 7.24458 10.8478C7.48915 10.3998 7.93842 10.111 8.83697 9.53338L10.9185 8.19526C11.4437 7.85763 11.7063 7.68881 12 7.68881C12.2937 7.68881 12.5563 7.85763 13.0815 8.19526L15.163 9.53338C16.0616 10.111 16.5108 10.3998 16.7554 10.8478C17 11.2958 17 11.8299 17 12.8981V22.5" stroke="#69727C" stroke-width="1.5" stroke-linecap="round" stroke-linejoin="round"/>
<path d="M12 13.5H12.009" stroke="#69727C" stroke-width="2" stroke-linecap="round" stroke-linejoin="round"/>
<path d="M21 22.5V16.6623C21 14.3707 19.7408 14.1852 17 13.5" stroke="#69727C" stroke-width="1.5" stroke-linecap="round" stroke-linejoin="round"/>
<path d="M3 22.5V16.6623C3 14.3707 4.25916 14.1852 7 13.5" stroke="#69727C" stroke-width="1.5" stroke-linecap="round" stroke-linejoin="round"/>
<path d="M2 22.5H22" stroke="#69727C" stroke-width="1.5" stroke-linecap="round" stroke-linejoin="round"/>
<path d="M12 22.5V18.5" stroke="#69727C" stroke-width="1.5" stroke-linecap="round"/>
<path d="M12 7.5V5.48221M12 5.48221V3.47035C12 2.99615 12 2.75905 12.1464 2.61173C12.6061 2.14939 14.5 3.24303 15.2203 3.68653C15.8285 4.06105 16 4.80914 16 5.48221H12Z" stroke="#69727C" stroke-width="1.5" stroke-linecap="round" stroke-linejoin="round"/>
</svg>
