<svg id="Layer_1" enable-background="new 0 0 512 512" height="512" viewBox="0 0 512 512" width="512" xmlns="http://www.w3.org/2000/svg"><g clip-rule="evenodd" fill-rule="evenodd"><circle cx="256" cy="256" fill="#e04f5f" r="256"/><path d="m273.668 376.738v16.197c0 12.988-6.473 24.201-17.722 30.695-5.412 3.124-11.452 4.867-17.715 4.87-6.269.003-12.307-1.743-17.723-4.87l-72.017-41.579c-11.25-6.495-17.722-17.705-17.722-30.695v-212.411c0-19.545 15.899-35.444 35.444-35.444h158.609c19.546 0 35.446 15.897 35.446 35.444v44.775c0 6.423-5.215 11.639-11.638 11.639-6.425 0-11.636-5.215-11.636-11.639v-44.775c0-6.712-5.461-12.172-12.173-12.172h-138.982l70.107 40.483c11.245 6.493 17.722 17.704 17.722 30.689v155.52h51.154c6.711 0 12.173-5.458 12.173-12.169v-39.251c0-6.427 5.207-11.638 11.636-11.638 6.426 0 11.638 5.212 11.638 11.638v39.251c0 19.546-15.901 35.444-35.446 35.444h-51.155zm107.836-124.983-12.816 12.816c-4.544 4.544-4.543 11.911 0 16.456 2.188 2.189 5.136 3.405 8.228 3.405 3.097 0 6.041-1.213 8.232-3.405l32.677-32.683c4.543-4.543 4.543-11.907 0-16.45l-32.677-32.677c-4.545-4.545-11.913-4.543-16.459-.001-4.543 4.54-4.542 11.91 0 16.451l12.816 12.813h-85.859c-6.43 0-11.636 5.21-11.636 11.639s5.207 11.636 11.636 11.636z" fill="#fff"/></g></svg>