<svg width="24" height="24" viewBox="0 0 24 24" fill="none" xmlns="http://www.w3.org/2000/svg">
<path fill-rule="evenodd" clip-rule="evenodd" d="M12.0366 2H11.9653C8.59614 2 5.50703 4.44456 5.20734 7.68096C5.18735 7.91248 5.17373 8.14906 5.16493 8.40391L5.15261 8.99974L5.15018 9.53395L5.16522 9.47306C5.02618 10.151 4.70573 10.7799 4.23702 11.2938L4.16985 11.3802C3.76852 11.9899 3.53793 12.6955 3.50224 13.4242L3.50139 13.6624C3.4809 14.6208 3.80931 15.5691 4.42712 16.3223C5.26493 17.2069 6.34945 17.7346 7.51345 17.8466C10.4905 18.1699 13.5025 18.1699 16.4878 17.8457C17.6439 17.7393 18.7316 17.2101 19.5343 16.3582C20.1404 15.6331 20.4712 14.763 20.4995 13.862L20.5005 13.4587C20.4673 12.698 20.2353 11.9917 19.8291 11.3847L19.7674 11.3055L19.6167 11.1282C19.2781 10.7052 19.0308 10.218 18.8901 9.69688L18.8455 9.50977L18.8363 9.31353C18.8335 9.22527 18.8321 9.1274 18.8317 9.00516L18.8316 8.33206C18.8293 8.07458 18.8216 7.89148 18.8039 7.68536C18.4939 4.44285 15.4039 2 12.0366 2ZM11.9652 3.39537H12.0365C14.734 3.39537 17.1948 5.34077 17.4311 7.81328C17.4451 7.9756 17.4513 8.13046 17.4532 8.36052L17.4559 9.26516C17.4589 9.40984 17.4646 9.53015 17.4743 9.66553L17.4872 9.7582L17.5521 10.034C17.7444 10.7635 18.0897 11.4441 18.5651 12.0309L18.703 12.1926L18.6877 12.1672C18.9514 12.5613 19.1016 13.0186 19.1226 13.4902L19.1219 13.6536C19.1379 14.3097 18.9203 14.9331 18.5088 15.4267C17.9649 16.002 17.1875 16.3803 16.3518 16.4572C13.4531 16.7719 10.5397 16.7719 7.65207 16.4584C6.80722 16.377 6.02921 15.9985 5.45408 15.3931C5.08126 14.9357 4.86608 14.3143 4.87959 13.6774L4.87975 13.4588L4.89721 13.2683C4.93929 12.9495 5.04578 12.6265 5.21084 12.3291L5.29455 12.1906C5.90819 11.5004 6.32932 10.6612 6.5148 9.75669L6.52919 9.61488L6.53571 8.69561L6.55177 8.22922C6.55905 8.08209 6.56838 7.9423 6.58007 7.8068C6.80843 5.34089 9.26691 3.39537 11.9652 3.39537ZM5.29455 12.1906C5.27971 12.2073 5.26475 12.2239 5.24969 12.2404L5.29895 12.1833L5.29455 12.1906ZM14.6083 19.6906C14.3117 19.4491 13.8778 19.4967 13.6392 19.7969C13.5358 19.927 13.4161 20.0438 13.2829 20.1443C12.831 20.4986 12.2672 20.6564 11.7067 20.5897C11.147 20.523 10.6382 20.2381 10.293 19.7995C10.0558 19.4981 9.62219 19.4485 9.32447 19.6886C9.02676 19.9287 8.97769 20.3676 9.21488 20.669C9.7873 21.3963 10.6261 21.8659 11.5456 21.9754C12.4643 22.0849 13.3894 21.826 14.117 21.2551C14.333 21.0922 14.5368 20.8935 14.7132 20.6716C14.9518 20.3713 14.9048 19.9322 14.6083 19.6906Z" fill="#200E32"/>
</svg>
