<svg width="40" height="40" viewBox="0 0 40 40" fill="none" xmlns="http://www.w3.org/2000/svg">
<circle cx="20" cy="20" r="19.3714" fill="#EEEEEE" stroke="#AAAAAA" stroke-width="1.25726"/>
<mask id="path-2-inside-1_125_3309" fill="white">
<path fill-rule="evenodd" clip-rule="evenodd" d="M5 33.2291V32.5C5 27.5125 14.9938 25 20 25C25.0063 25 35 27.5125 35 32.5V33.229C31.3353 37.3812 25.9735 39.9999 20 39.9999C14.0265 39.9999 8.66472 37.3812 5 33.2291ZM20 8.33337C15.8562 8.33337 12.5 11.6896 12.5 15.8334C12.5 19.9771 15.8562 23.3334 20 23.3334C24.1437 23.3334 27.5 19.9771 27.5 15.8334C27.5 11.6896 24.1437 8.33337 20 8.33337Z"/>
</mask>
<path fill-rule="evenodd" clip-rule="evenodd" d="M5 33.2291V32.5C5 27.5125 14.9938 25 20 25C25.0063 25 35 27.5125 35 32.5V33.229C31.3353 37.3812 25.9735 39.9999 20 39.9999C14.0265 39.9999 8.66472 37.3812 5 33.2291ZM20 8.33337C15.8562 8.33337 12.5 11.6896 12.5 15.8334C12.5 19.9771 15.8562 23.3334 20 23.3334C24.1437 23.3334 27.5 19.9771 27.5 15.8334C27.5 11.6896 24.1437 8.33337 20 8.33337Z" fill="#EEEEEE"/>
<path d="M5 33.2291H3.74274V33.7046L4.05738 34.0611L5 33.2291ZM35 33.229L35.9426 34.061L36.2573 33.7045V33.229H35ZM6.25726 33.2291V32.5H3.74274V33.2291H6.25726ZM6.25726 32.5C6.25726 31.7149 6.64057 30.9342 7.49245 30.148C8.35288 29.3538 9.60482 28.6419 11.0902 28.0468C14.063 26.8559 17.654 26.2573 20 26.2573V23.7428C17.3397 23.7428 13.4308 24.4004 10.1551 25.7126C8.51628 26.3691 6.95689 27.2205 5.78704 28.3002C4.60865 29.3877 3.74274 30.7914 3.74274 32.5H6.25726ZM20 26.2573C22.346 26.2573 25.937 26.8559 28.9098 28.0468C30.3952 28.6419 31.6471 29.3538 32.5076 30.148C33.3594 30.9342 33.7427 31.7149 33.7427 32.5H36.2573C36.2573 30.7914 35.3914 29.3877 34.213 28.3002C33.0431 27.2205 31.4837 26.3691 29.8449 25.7126C26.5692 24.4004 22.6603 23.7428 20 23.7428V26.2573ZM33.7427 32.5V33.229H36.2573V32.5H33.7427ZM34.0574 32.3971C30.6212 36.2903 25.5978 38.7427 20 38.7427V41.2572C26.3491 41.2572 32.0494 38.4721 35.9426 34.061L34.0574 32.3971ZM20 38.7427C14.4022 38.7427 9.3788 36.2903 5.94262 32.3971L4.05738 34.0611C7.95064 38.4721 13.6508 41.2572 20 41.2572V38.7427ZM13.7572 15.8334C13.7572 12.384 16.5506 9.59063 20 9.59063V7.07612C15.1619 7.07612 11.2427 10.9953 11.2427 15.8334H13.7572ZM20 22.0761C16.5506 22.0761 13.7572 19.2828 13.7572 15.8334H11.2427C11.2427 20.6715 15.1619 24.5906 20 24.5906V22.0761ZM26.2427 15.8334C26.2427 19.2828 23.4494 22.0761 20 22.0761V24.5906C24.8381 24.5906 28.7573 20.6715 28.7573 15.8334H26.2427ZM20 9.59063C23.4494 9.59063 26.2427 12.384 26.2427 15.8334H28.7573C28.7573 10.9953 24.8381 7.07612 20 7.07612V9.59063Z" fill="#AAAAAA" mask="url(#path-2-inside-1_125_3309)"/>
</svg>
