<svg width="20" height="20" viewBox="0 0 20 20" fill="none" xmlns="http://www.w3.org/2000/svg">
<path opacity="0.3" d="M5.83332 10.225V13.325L9.99998 15.6L14.1666 13.325V10.225L9.99998 12.5L5.83332 10.225ZM4.31665 7.50002L9.99998 10.6L15.6833 7.50002L9.99998 4.40002L4.31665 7.50002Z" fill="#E87D7D"/>
<path d="M9.99992 2.5L0.833252 7.5L4.16658 9.31667V14.3167L9.99992 17.5L15.8333 14.3167V9.31667L17.4999 8.40833V14.1667H19.1666V7.5L9.99992 2.5ZM14.1666 13.325L9.99992 15.6L5.83325 13.325V10.225L9.99992 12.5L14.1666 10.225V13.325ZM9.99992 10.6L4.31658 7.5L9.99992 4.4L15.6833 7.5L9.99992 10.6Z" fill="#E87D7D"/>
</svg>
