
<svg width="20" height="20" viewBox="0 0 20 20" fill="none" xmlns="http://www.w3.org/2000/svg">
<path d="M17.4999 4.16667C16.5749 3.875 15.5583 3.75 14.5833 3.75C12.9583 3.75 11.2083 4.08333 9.99992 5C8.79158 4.08333 7.04158 3.75 5.41658 3.75C3.79158 3.75 2.04159 4.08333 0.833252 5V17.2083C0.833252 17.4167 1.04159 17.625 1.24992 17.625C1.33325 17.625 1.37492 17.5833 1.45825 17.5833C2.58325 17.0417 4.20825 16.6667 5.41658 16.6667C7.04158 16.6667 8.79158 17 9.99992 17.9167C11.1249 17.2083 13.1666 16.6667 14.5833 16.6667C15.9583 16.6667 17.3749 16.9167 18.5416 17.5417C18.6249 17.5833 18.6666 17.5833 18.7499 17.5833C18.9583 17.5833 19.1666 17.375 19.1666 17.1667V5C18.6666 4.625 18.1249 4.375 17.4999 4.16667ZM17.4999 15.4167C16.5833 15.125 15.5833 15 14.5833 15C13.1666 15 11.1249 15.5417 9.99992 16.25V6.66667C11.1249 5.95833 13.1666 5.41667 14.5833 5.41667C15.5833 5.41667 16.5833 5.54167 17.4999 5.83333V15.4167Z" fill="#1BAFDC"/>
<path d="M14.5833 8.75C15.3166 8.75 16.0249 8.825 16.6666 8.96667V7.7C16.0083 7.575 15.2999 7.5 14.5833 7.5C13.1666 7.5 11.8833 7.74167 10.8333 8.19167V9.575C11.7749 9.04167 13.0833 8.75 14.5833 8.75Z" fill="#1BAFDC"/>
<path d="M10.8333 10.4083V11.7917C11.7749 11.2583 13.0833 10.9667 14.5833 10.9667C15.3166 10.9667 16.0249 11.0417 16.6666 11.1833V9.91667C16.0083 9.79167 15.2999 9.71667 14.5833 9.71667C13.1666 9.71667 11.8833 9.96667 10.8333 10.4083Z" fill="#1BAFDC"/>
<path d="M14.5833 11.9417C13.1666 11.9417 11.8833 12.1833 10.8333 12.6333V14.0167C11.7749 13.4833 13.0833 13.1917 14.5833 13.1917C15.3166 13.1917 16.0249 13.2667 16.6666 13.4083V12.1417C16.0083 12.0083 15.2999 11.9417 14.5833 11.9417Z" fill="#1BAFDC"/>
</svg>
