<svg width="20" height="20" viewBox="0 0 20 20" fill="none" xmlns="http://www.w3.org/2000/svg">
<path opacity="0.3" d="M15.8333 10.8333H14.1666V5.83333H9.16659V4.16667C9.16659 3.93333 8.98325 3.75 8.74992 3.75C8.51659 3.75 8.33325 3.93333 8.33325 4.16667V5.83333H3.33325L3.34159 7.6C4.79992 8.16667 5.83325 9.59167 5.83325 11.25C5.83325 12.9083 4.79159 14.3333 3.33325 14.9V16.6667H5.09992C5.66659 15.2083 7.09159 14.1667 8.74992 14.1667C10.4083 14.1667 11.8333 15.2083 12.3999 16.6667H14.1666V11.6667H15.8333C16.0666 11.6667 16.2499 11.4833 16.2499 11.25C16.2499 11.0167 16.0666 10.8333 15.8333 10.8333Z" fill="#F41E92"/>
<path d="M15.8334 9.16659V5.83325C15.8334 4.91659 15.0834 4.16659 14.1667 4.16659H10.8334C10.8334 3.01659 9.90008 2.08325 8.75008 2.08325C7.60008 2.08325 6.66675 3.01659 6.66675 4.16659H3.33341C2.41675 4.16659 1.67508 4.91659 1.67508 5.83325V8.99992H1.91675C3.15841 8.99992 4.16675 10.0083 4.16675 11.2499C4.16675 12.4916 3.15841 13.4999 1.91675 13.4999H1.66675V16.6666C1.66675 17.5833 2.41675 18.3333 3.33341 18.3333H6.50008V18.0833C6.50008 16.8416 7.50841 15.8333 8.75008 15.8333C9.99175 15.8333 11.0001 16.8416 11.0001 18.0833V18.3333H14.1667C15.0834 18.3333 15.8334 17.5833 15.8334 16.6666V13.3333C16.9834 13.3333 17.9167 12.3999 17.9167 11.2499C17.9167 10.0999 16.9834 9.16659 15.8334 9.16659ZM15.8334 11.6666H14.1667V16.6666H12.4001C11.8334 15.2083 10.4084 14.1666 8.75008 14.1666C7.09175 14.1666 5.66675 15.2083 5.10008 16.6666H3.33341V14.8999C4.79175 14.3333 5.83341 12.9083 5.83341 11.2499C5.83341 9.59159 4.80008 8.16659 3.34175 7.59992L3.33341 5.83325H8.33341V4.16659C8.33341 3.93325 8.51675 3.74992 8.75008 3.74992C8.98341 3.74992 9.16675 3.93325 9.16675 4.16659V5.83325H14.1667V10.8333H15.8334C16.0667 10.8333 16.2501 11.0166 16.2501 11.2499C16.2501 11.4833 16.0667 11.6666 15.8334 11.6666Z" fill="#F41E92"/>
</svg>
