<svg width="20" height="20" viewBox="0 0 20 20" fill="none" xmlns="http://www.w3.org/2000/svg">
<path opacity="0.3" d="M12.4999 14.1667H7.49992V13.3333H4.16659V15.8333H15.8333V13.3333H12.4999V14.1667ZM3.33325 11.6667H7.49992V9.16667H12.4999V11.6667H16.6666V7.5H3.33325V11.6667Z" fill="#F79009"/>
<path d="M16.6667 5.83333H13.3334V4.16667L11.6667 2.5H8.33342L6.66675 4.16667V5.83333H3.33341C2.41675 5.83333 1.66675 6.58333 1.66675 7.5V11.6667C1.66675 12.2917 2.00008 12.8167 2.50008 13.1083V15.8333C2.50008 16.7583 3.24175 17.5 4.16675 17.5H15.8334C16.7584 17.5 17.5001 16.7583 17.5001 15.8333V13.1C17.9917 12.8083 18.3334 12.275 18.3334 11.6667V7.5C18.3334 6.58333 17.5834 5.83333 16.6667 5.83333ZM8.33342 4.16667H11.6667V5.83333H8.33342V4.16667ZM15.8334 15.8333H4.16675V13.3333H7.50008V14.1667H12.5001V13.3333H15.8334V15.8333ZM9.16675 12.5V10.8333H10.8334V12.5H9.16675ZM16.6667 11.6667H12.5001V9.16667H7.50008V11.6667H3.33341V7.5H16.6667V11.6667Z" fill="#F79009"/>
</svg>
