<svg width="18" height="18" viewBox="0 0 18 18" fill="none" xmlns="http://www.w3.org/2000/svg">
<path d="M9.00008 11.875C8.31675 10.8333 7.45008 9.92496 6.45008 9.20829C6.34175 9.13329 6.22508 9.07496 6.11675 8.99163C6.22508 9.06663 6.34175 9.13329 6.44175 9.19996C4.81675 8.02496 2.82508 7.33329 0.666748 7.33329C0.666748 11.7666 3.46675 15.5166 7.35841 16.9083C7.88341 17.1 8.43342 17.2416 9.00008 17.3333C9.56675 17.2333 10.1084 17.0916 10.6417 16.9083C14.5334 15.5166 17.3334 11.7666 17.3334 7.33329C13.8501 7.33329 10.7917 9.14163 9.00008 11.875ZM10.1001 15.3333C9.73341 15.4583 9.36675 15.5583 8.99175 15.6416C8.62508 15.5666 8.26675 15.4666 7.92508 15.3416C5.18341 14.3583 3.17508 12.0166 2.55008 9.21663C3.46675 9.43329 4.34175 9.80829 5.15008 10.325L5.13342 10.3333C5.24175 10.4083 5.35008 10.4833 5.45841 10.5416L5.51675 10.575C6.34175 11.175 7.05008 11.9166 7.60841 12.7833L9.00008 14.9166L10.3917 12.7916C10.9667 11.9166 11.6834 11.1666 12.5001 10.575L12.5584 10.5333C12.6334 10.4916 12.7084 10.4416 12.7834 10.3916L12.7751 10.375C13.5917 9.83329 14.5001 9.43329 15.4501 9.20829C14.8251 12.0166 12.8251 14.3583 10.1001 15.3333V15.3333ZM11.9084 7.02496C11.7584 4.69996 10.8167 2.43329 9.05008 0.666626C7.26675 2.44996 6.28342 4.71663 6.09175 7.02496C7.15842 7.59163 8.14175 8.32496 9.00008 9.21663C9.85842 8.33329 10.8417 7.59996 11.9084 7.02496V7.02496ZM9.04175 3.32496C9.56675 4.18329 9.93342 5.14163 10.1251 6.14163C9.73342 6.39163 9.36675 6.66663 9.00842 6.95829C8.65842 6.67496 8.28342 6.39996 7.90008 6.14996C8.10842 5.14996 8.49175 4.19163 9.04175 3.32496V3.32496Z" fill="#116A85"/>
</svg>
