
<svg width="20" height="20" viewBox="0 0 20 20" fill="none" xmlns="http://www.w3.org/2000/svg">
<path opacity="0.3" d="M15.8334 4.16675H4.16675V15.8334H15.8334V4.16675ZM7.50008 14.1667H5.83341V8.33341H7.50008V14.1667ZM10.8334 14.1667H9.16675V5.83341H10.8334V14.1667ZM14.1667 14.1667H12.5001V10.8334H14.1667V14.1667Z" fill="#2686EC"/>
<path d="M2.5 4.16667V15.8333C2.5 16.75 3.25 17.5 4.16667 17.5H15.8333C16.75 17.5 17.5 16.75 17.5 15.8333V4.16667C17.5 3.25 16.75 2.5 15.8333 2.5H4.16667C3.25 2.5 2.5 3.25 2.5 4.16667ZM4.16667 4.16667H15.8333V15.8333H4.16667V4.16667ZM5.83333 8.33333H7.5V14.1667H5.83333V8.33333ZM9.16667 5.83333H10.8333V14.1667H9.16667V5.83333ZM12.5 10.8333H14.1667V14.1667H12.5V10.8333Z" fill="#2686EC"/>
</svg>
