<svg width="20" height="20" viewBox="0 0 20 20" fill="none" xmlns="http://www.w3.org/2000/svg">
<path opacity="0.3" d="M5.83341 5.83329L9.16675 6.66663V4.16663H4.16675V9.16663H6.66675L5.83341 5.83329ZM6.66675 10.8333H4.16675V15.8333H9.16675V13.3333L5.83341 14.1666L6.66675 10.8333ZM14.1667 14.1666L10.8334 13.3333V15.8333H15.8334V10.8333H13.3334L14.1667 14.1666ZM10.8334 6.66663L14.1667 5.83329L13.3334 9.16663H15.8334V4.16663H10.8334V6.66663Z" fill="#580B94"/>
<path d="M15.8333 2.5H4.16667C3.25 2.5 2.5 3.25 2.5 4.16667V15.8333C2.5 16.75 3.25 17.5 4.16667 17.5H15.8333C16.75 17.5 17.5 16.75 17.5 15.8333V4.16667C17.5 3.25 16.75 2.5 15.8333 2.5ZM4.16667 4.16667H9.16667V6.66667L5.83333 5.83333L6.66667 9.16667H4.16667V4.16667ZM9.16667 15.8333H4.16667V10.8333H6.66667L5.83333 14.1667L9.16667 13.3333V15.8333ZM7.80833 12.1917L8.56667 10L7.80833 7.80833L10 8.56667L12.1917 7.80833L11.4333 10L12.1917 12.1917L10 11.4333L7.80833 12.1917ZM15.8333 15.8333H10.8333V13.3333L14.1667 14.1667L13.3333 10.8333H15.8333V15.8333ZM15.8333 9.16667H13.3333L14.1667 5.83333L10.8333 6.66667V4.16667H15.8333V9.16667Z" fill="#580B94"/>
</svg>
