<svg width="20" height="20" viewBox="0 0 20 20" fill="none" xmlns="http://www.w3.org/2000/svg">
<path opacity="0.3" d="M15.8334 14.2751V8.4834C14.0834 8.80007 12.4584 9.6084 11.1334 10.8417L10.0001 11.9001L8.86675 10.8417C7.54175 9.6084 5.91675 8.80007 4.16675 8.4834V14.2751C6.27508 14.5584 8.28341 15.3584 10.0001 16.6334C11.7251 15.3667 13.7251 14.5584 15.8334 14.2751V14.2751Z" fill="#963FDA"/>
<path opacity="0.3" d="M9.99992 5.83333C10.9204 5.83333 11.6666 5.08714 11.6666 4.16667C11.6666 3.24619 10.9204 2.5 9.99992 2.5C9.07944 2.5 8.33325 3.24619 8.33325 4.16667C8.33325 5.08714 9.07944 5.83333 9.99992 5.83333Z" fill="#963FDA"/>
<path d="M13.3333 4.16659C13.3333 2.32492 11.8417 0.833252 10 0.833252C8.15833 0.833252 6.66667 2.32492 6.66667 4.16659C6.66667 6.00825 8.15833 7.49992 10 7.49992C11.8417 7.49992 13.3333 6.00825 13.3333 4.16659ZM8.33333 4.16659C8.33333 3.24992 9.08333 2.49992 10 2.49992C10.9167 2.49992 11.6667 3.24992 11.6667 4.16659C11.6667 5.08325 10.9167 5.83325 10 5.83325C9.08333 5.83325 8.33333 5.08325 8.33333 4.16659ZM2.5 15.8333C5.4 15.8333 8.03333 16.9583 10 18.7916C11.9667 16.9666 14.6 15.8333 17.5 15.8333V6.66659C14.6 6.66659 11.9667 7.79159 10 9.62492C8.03333 7.79159 5.4 6.66659 2.5 6.66659V15.8333ZM4.16667 8.48325C5.91667 8.79992 7.54167 9.60825 8.86667 10.8416L10 11.8999L11.1333 10.8416C12.4583 9.60825 14.0833 8.79992 15.8333 8.48325V14.2749C13.725 14.5583 11.725 15.3583 10 16.6249C8.28333 15.3583 6.275 14.5499 4.16667 14.2666V8.48325V8.48325Z" fill="#963FDA"/>
</svg>
