<svg width="20" height="20" viewBox="0 0 20 20" fill="none" xmlns="http://www.w3.org/2000/svg">
<path opacity="0.3" d="M10 8.41675C10.9665 8.41675 11.75 7.63325 11.75 6.66675C11.75 5.70025 10.9665 4.91675 10 4.91675C9.0335 4.91675 8.25 5.70025 8.25 6.66675C8.25 7.63325 9.0335 8.41675 10 8.41675Z" fill="#22CA5B"/>
<path opacity="0.3" d="M10.0001 12.4167C7.52508 12.4167 4.91675 13.6334 4.91675 14.1667V15.0834H15.0834V14.1667C15.0834 13.6334 12.4751 12.4167 10.0001 12.4167V12.4167Z" fill="#22CA5B"/>
<path d="M9.99992 10.8333C7.77492 10.8333 3.33325 11.9499 3.33325 14.1666V16.6666H16.6666V14.1666C16.6666 11.9499 12.2249 10.8333 9.99992 10.8333ZM15.0833 15.0833H4.91659V14.1666C4.91659 13.6333 7.52492 12.4166 9.99992 12.4166C12.4749 12.4166 15.0833 13.6333 15.0833 14.1666V15.0833ZM9.99992 9.99992C11.8416 9.99992 13.3333 8.50825 13.3333 6.66659C13.3333 4.82492 11.8416 3.33325 9.99992 3.33325C8.15825 3.33325 6.66659 4.82492 6.66659 6.66659C6.66659 8.50825 8.15825 9.99992 9.99992 9.99992ZM9.99992 4.91659C10.9666 4.91659 11.7499 5.69992 11.7499 6.66659C11.7499 7.63325 10.9666 8.41659 9.99992 8.41659C9.03325 8.41659 8.24992 7.63325 8.24992 6.66659C8.24992 5.69992 9.03325 4.91659 9.99992 4.91659Z" fill="#22CA5B"/>
</svg>
