<svg width="20" height="20" viewBox="0 0 20 20" fill="none" xmlns="http://www.w3.org/2000/svg">
<path opacity="0.3" d="M16.0667 7.16659L15.4833 6.15825L14.425 6.58325L13.5417 6.94159L12.7834 6.35825C12.4584 6.10825 12.1167 5.90825 11.7583 5.76659L10.875 5.40825L10.7417 4.46659L10.5833 3.33325H9.41668L9.25835 4.45825L9.12502 5.39992L8.24168 5.76659C7.90002 5.90825 7.55835 6.10825 7.20002 6.37492L6.45002 6.94159L5.57502 6.59159L4.51668 6.15825L3.93335 7.16659L4.83335 7.86658L5.57502 8.44992L5.45835 9.39159C5.43335 9.64159 5.41668 9.83325 5.41668 9.99992C5.41668 10.1666 5.43335 10.3583 5.45835 10.6083L5.57502 11.5499L4.83335 12.1333L3.93335 12.8333L4.51668 13.8416L5.57502 13.4166L6.45835 13.0583L7.21668 13.6416C7.54168 13.8916 7.88335 14.0916 8.24168 14.2333L9.12502 14.5916L9.25835 15.5333L9.41668 16.6666H10.575L10.7333 15.5416L10.8667 14.5999L11.75 14.2416C12.0917 14.0999 12.4334 13.8999 12.7917 13.6333L13.5417 13.0666L14.4084 13.4166L15.4667 13.8416L16.05 12.8333L15.15 12.1333L14.4084 11.5499L14.525 10.6083C14.5584 10.3499 14.5667 10.1749 14.5667 9.99992C14.5667 9.82492 14.55 9.64159 14.525 9.39159L14.4084 8.44992L15.15 7.86658L16.0667 7.16659V7.16659ZM10 13.3333C8.15835 13.3333 6.66668 11.8416 6.66668 9.99992C6.66668 8.15825 8.15835 6.66659 10 6.66659C11.8417 6.66659 13.3333 8.15825 13.3333 9.99992C13.3333 11.8416 11.8417 13.3333 10 13.3333Z" fill="#F04438"/>
<path d="M16.1918 10.8167C16.2251 10.5501 16.2501 10.2834 16.2501 10.0001C16.2501 9.71675 16.2251 9.45008 16.1918 9.18342L17.9501 7.80841C18.1084 7.68341 18.1501 7.45841 18.0501 7.27508L16.3834 4.39175C16.3084 4.25841 16.1668 4.18341 16.0168 4.18341C15.9668 4.18341 15.9168 4.19175 15.8751 4.20841L13.8001 5.04175C13.3668 4.70842 12.9001 4.43341 12.3918 4.22508L12.0751 2.01675C12.0501 1.81675 11.8751 1.66675 11.6668 1.66675H8.33344C8.12511 1.66675 7.95011 1.81675 7.92511 2.01675L7.60844 4.22508C7.10011 4.43341 6.63344 4.71675 6.20011 5.04175L4.12511 4.20841C4.07511 4.19175 4.02511 4.18341 3.97511 4.18341C3.83344 4.18341 3.69178 4.25841 3.61678 4.39175L1.95011 7.27508C1.84178 7.45841 1.89178 7.68341 2.05011 7.80841L3.80844 9.18342C3.77511 9.45008 3.75011 9.72508 3.75011 10.0001C3.75011 10.2751 3.77511 10.5501 3.80844 10.8167L2.05011 12.1917C1.89178 12.3167 1.85011 12.5417 1.95011 12.7251L3.61678 15.6084C3.69178 15.7417 3.83344 15.8167 3.98344 15.8167C4.03344 15.8167 4.08344 15.8084 4.12511 15.7917L6.20011 14.9584C6.63344 15.2917 7.10011 15.5667 7.60844 15.7751L7.92511 17.9834C7.95011 18.1834 8.12511 18.3334 8.33344 18.3334H11.6668C11.8751 18.3334 12.0501 18.1834 12.0751 17.9834L12.3918 15.7751C12.9001 15.5667 13.3668 15.2834 13.8001 14.9584L15.8751 15.7917C15.9251 15.8084 15.9751 15.8167 16.0251 15.8167C16.1668 15.8167 16.3084 15.7417 16.3834 15.6084L18.0501 12.7251C18.1501 12.5417 18.1084 12.3167 17.9501 12.1917L16.1918 10.8167V10.8167ZM14.5418 9.39175C14.5751 9.65008 14.5834 9.82508 14.5834 10.0001C14.5834 10.1751 14.5668 10.3584 14.5418 10.6084L14.4251 11.5501L15.1668 12.1334L16.0668 12.8334L15.4834 13.8417L14.4251 13.4167L13.5584 13.0667L12.8084 13.6334C12.4501 13.9001 12.1084 14.1001 11.7668 14.2417L10.8834 14.6001L10.7501 15.5417L10.5834 16.6667H9.41678L9.25844 15.5417L9.12511 14.6001L8.24178 14.2417C7.88344 14.0917 7.55011 13.9001 7.21678 13.6501L6.45844 13.0667L5.57511 13.4251L4.51678 13.8501L3.93344 12.8417L4.83344 12.1417L5.57511 11.5584L5.45844 10.6167C5.43344 10.3584 5.41678 10.1667 5.41678 10.0001C5.41678 9.83342 5.43344 9.64175 5.45844 9.39175L5.57511 8.45008L4.83344 7.86675L3.93344 7.16675L4.51678 6.15841L5.57511 6.58342L6.44178 6.93341L7.19178 6.36675C7.55011 6.10008 7.89178 5.90008 8.23344 5.75841L9.11678 5.40008L9.25011 4.45841L9.41678 3.33341H10.5751L10.7334 4.45841L10.8668 5.40008L11.7501 5.75841C12.1084 5.90841 12.4418 6.10008 12.7751 6.35008L13.5334 6.93341L14.4168 6.57508L15.4751 6.15008L16.0584 7.15842L15.1668 7.86675L14.4251 8.45008L14.5418 9.39175ZM10.0001 6.66675C8.15844 6.66675 6.66678 8.15841 6.66678 10.0001C6.66678 11.8417 8.15844 13.3334 10.0001 13.3334C11.8418 13.3334 13.3334 11.8417 13.3334 10.0001C13.3334 8.15841 11.8418 6.66675 10.0001 6.66675ZM10.0001 11.6667C9.08344 11.6667 8.33344 10.9167 8.33344 10.0001C8.33344 9.08342 9.08344 8.33342 10.0001 8.33342C10.9168 8.33342 11.6668 9.08342 11.6668 10.0001C11.6668 10.9167 10.9168 11.6667 10.0001 11.6667Z" fill="#F04438"/>
</svg>
